<svg width="80" height="80" viewBox="0 0 300 300" fill="none" xmlns="http://www.w3.org/2000/svg">
<path d="M150.015 283.206L209.446 268.198C243.368 240.03 264.976 197.542 264.976 150.003C264.976 76.6768 213.582 15.3542 144.851 0.0899658C64.3928 2.80344 0 68.883 0 150.003C0 191.67 16.9922 229.366 44.421 256.548L150.015 283.206Z" fill="#CBE2FF"/>
<path d="M261.864 150C261.864 199.169 238.202 242.808 201.65 270.164L255.574 256.546C283.004 229.364 300 191.668 300 150C300 67.157 232.842 0 150 0C143.541 0 137.176 0.408984 130.932 1.20117C204.772 10.5691 261.864 73.617 261.864 150Z" fill="#BED8FB"/>
<path d="M187.278 56.8082C187.278 49.147 181.068 42.9366 173.406 42.9366H125.604C107.973 42.9366 93.6798 57.23 93.6798 74.8614V110.307H206.302V75.3642C206.302 67.703 200.092 61.4928 192.431 61.4928H191.963C189.376 61.4928 187.278 59.3956 187.278 56.8082Z" fill="#CFA565"/>
<path d="M192.431 61.4924H191.963C189.376 61.4924 187.278 59.3948 187.278 56.8072C187.278 49.146 181.068 42.9358 173.407 42.9358H168.165V110.306H206.302V75.3632C206.302 67.7034 200.092 61.4924 192.431 61.4924Z" fill="#AB8853"/>
<path d="M249.05 218.176C245.382 214.554 240.846 211.754 235.696 210.122L194.745 197.157L150.009 195.585L105.256 197.157L64.3038 210.122C50.4498 214.51 41.0344 227.366 41.0344 241.898V253.086C67.278 280.816 103.994 298.536 144.852 299.914C190.631 289.748 228.718 259.146 249.05 218.176Z" fill="#325C7D"/>
<path d="M258.966 253.086V241.898C258.966 231.622 254.256 222.19 246.6 215.992C224.854 260.304 181.899 292.322 130.967 298.794C137.115 299.574 143.376 299.99 149.732 300C155.84 299.99 161.866 299.636 167.793 298.956C203.554 294.728 235.46 277.924 258.966 253.086Z" fill="#407093"/>
<path d="M153.396 297.756C162.472 279.736 186.104 228.574 179.365 196.617L150.009 185.191L120.626 196.617C113.679 229.562 139.007 282.914 147.392 299.326C149.409 298.842 151.411 298.318 153.396 297.756Z" fill="#E4F6FF"/>
<path d="M168.865 283.472L156.963 236.644H143.037L131.163 283.342L145.846 299.69C149.573 298.834 153.248 297.844 156.867 296.726L168.865 283.472Z" fill="#E28086"/>
<path d="M146.075 299.944C147.291 299.976 148.509 299.998 149.732 300C151.147 299.998 152.558 299.974 153.964 299.934L161.527 291.578C155.574 293.668 149.45 295.392 143.182 296.724L146.075 299.944Z" fill="#DD636E"/>
<path d="M175.063 192.295V165.889H124.918V192.295C124.918 206.142 149.991 221.268 149.991 221.268C149.991 221.268 175.063 206.142 175.063 192.295Z" fill="#FFDDCE"/>
<path d="M206.302 105.655H196.717C191.386 105.655 187.065 101.334 187.065 96.0028V90.7208C187.065 83.7768 180.271 78.867 173.678 81.0464C158.301 86.1286 141.698 86.13 126.321 81.0498L126.302 81.044C119.709 78.866 112.917 83.7756 112.917 90.719V96.0034C112.917 101.334 108.595 105.656 103.265 105.656H93.6798V121.44C93.6798 125.473 96.9494 128.743 100.983 128.743C102.256 128.743 103.291 129.739 103.371 131.01C104.911 155.424 125.188 174.752 149.991 174.752C174.794 174.752 195.071 155.424 196.611 131.01C196.692 129.74 197.727 128.743 199 128.743C203.032 128.743 206.302 125.473 206.302 121.44V105.655Z" fill="#FFDDCE"/>
<path d="M196.717 105.656C191.386 105.656 187.065 101.335 187.065 96.0038V90.7214C187.065 83.7774 180.271 78.868 173.678 81.0472C171.857 81.6488 170.017 82.1738 168.166 82.6332V134.765C167.909 151.727 158.615 166.489 144.89 174.467C146.566 174.65 148.266 174.752 149.991 174.752C174.793 174.752 195.071 155.424 196.611 131.009C196.691 129.74 197.726 128.742 198.999 128.742C203.032 128.742 206.302 125.473 206.302 121.439V105.655H196.717V105.656Z" fill="#FFCBBE"/>
<path d="M124.918 185.191L105.256 201.168L125.876 226.664C128.384 229.106 132.332 229.256 135.019 227.012L150.526 214.058L124.918 185.191Z" fill="#F4FBFF"/>
<path d="M175.072 185.191L150.526 214.058L165.101 226.52C167.771 228.804 171.738 228.688 174.271 226.254L194.744 201.168L175.072 185.191Z" fill="#F4FBFF"/>
<path d="M124.918 185.191L96.0574 199.37C93.86 200.45 92.9778 203.122 94.0998 205.298L99.754 216.262C101.219 219.102 100.679 222.564 98.417 224.822C97.2528 225.984 95.9918 227.242 94.8992 228.334C92.9432 230.286 92.2406 233.17 93.102 235.796C99.9288 256.608 132.785 288.428 145.219 299.944C146.055 299.966 146.893 299.982 147.732 299.99C138.715 282.452 106.763 215.818 124.918 185.191Z" fill="#365E7D"/>
<path d="M201.574 224.822C199.311 222.564 198.771 219.102 200.236 216.26L205.89 205.298C207.012 203.122 206.13 200.45 203.934 199.37L175.072 185.191C193.223 215.81 161.293 282.416 152.266 299.976C153.114 299.964 153.961 299.942 154.806 299.914C167.266 288.374 200.068 256.588 206.888 235.798C207.75 233.17 207.048 230.286 205.092 228.334C203.998 227.242 202.738 225.984 201.574 224.822Z" fill="#365E7D"/>
<path d="M150.526 214.058L135.257 226.812L143.037 236.644H156.963L164.743 226.232L150.526 214.058Z" fill="#DD636E"/>
</svg>
